<svg width="21" height="21" viewBox="0 0 21 21" fill="none" xmlns="http://www.w3.org/2000/svg">
<mask id="mask0_11_1015" style="mask-type:alpha" maskUnits="userSpaceOnUse" x="0" y="0" width="21" height="21">
<rect x="0.722168" y="0.472595" width="19.5556" height="19.5556" fill="#D9D9D9"/>
</mask>
<g mask="url(#mask0_11_1015)">
<path d="M15.2331 5.73472L8.50492 12.4629L5.7891 9.72793L5.78848 9.72731C5.58013 9.51896 5.32361 9.40965 5.03115 9.40965C4.73868 9.40965 4.48217 9.51896 4.27382 9.72731C4.06722 9.93391 3.95486 10.1874 3.94608 10.4771C3.93714 10.7722 4.04329 11.0318 4.25345 11.242L7.75715 14.7457C7.96384 14.9524 8.21637 15.0633 8.5043 15.0633C8.79222 15.0633 9.04475 14.9524 9.25144 14.7457L12.9996 10.9975L16.7477 7.24939C16.9561 7.04103 17.0654 6.78452 17.0654 6.49205C17.0654 6.19959 16.9561 5.94307 16.7477 5.73472C16.5394 5.52637 16.2829 5.41705 15.9904 5.41705C15.6979 5.41705 15.4414 5.52637 15.2331 5.73472Z" fill="white" stroke="white" stroke-width="0.5"/>
</g>
</svg>
